<svg xmlns="http://www.w3.org/2000/svg" width="39.919" height="39.923" viewBox="0 0 39.919 39.923">
  <path id="Path_6086" data-name="Path 6086" d="M38.438,37.967a1.669,1.669,0,0,0,1.481-1.793A34.849,34.849,0,0,0,29.317,10.6,34.849,34.849,0,0,0,3.745,0,1.669,1.669,0,0,0,1.952,1.481L.081,9.589a1.624,1.624,0,0,0,1.091,2.1L9.9,15.436a1.729,1.729,0,0,0,2.183-.546l3.82-4.678A27.4,27.4,0,0,1,24.054,15.9a28.642,28.642,0,0,1,5.652,8.108l-4.678,3.9a1.7,1.7,0,0,0-.546,2.183l3.742,8.732a1.621,1.621,0,0,0,2.1,1.013Z" transform="translate(39.919 39.923) rotate(180)" fill="#fff"/>
</svg>
