<svg xmlns="http://www.w3.org/2000/svg" width="40.405" height="46.177" viewBox="0 0 40.405 46.177">
  <path id="Path_6084" data-name="Path 6084" d="M28.365-31.918A11.122,11.122,0,0,1,20.2-28.536a11.122,11.122,0,0,1-8.162-3.382,11.122,11.122,0,0,1-3.382-8.162,11.122,11.122,0,0,1,3.382-8.162A11.122,11.122,0,0,1,20.2-51.625a11.122,11.122,0,0,1,8.162,3.382,11.122,11.122,0,0,1,3.382,8.162A11.122,11.122,0,0,1,28.365-31.918ZM10.011-11.851a2.087,2.087,0,0,1-.631-1.533,2.087,2.087,0,0,1,.631-1.533,2.087,2.087,0,0,1,1.533-.631,2.087,2.087,0,0,1,1.533.631,2.087,2.087,0,0,1,.631,1.533,2.087,2.087,0,0,1-.631,1.533,2.087,2.087,0,0,1-1.533.631A2.087,2.087,0,0,1,10.011-11.851ZM28.861-25.56a11.492,11.492,0,0,1,8.207,3.7,11.657,11.657,0,0,1,3.337,8.3v4.059A3.922,3.922,0,0,1,39.233-6.62a3.922,3.922,0,0,1-2.886,1.172H4.059A3.922,3.922,0,0,1,1.172-6.62,3.922,3.922,0,0,1,0-9.506v-4.059a11.665,11.665,0,0,1,2.886-7.8,11.762,11.762,0,0,1,7.215-4.1v7.305a5.036,5.036,0,0,0-2.57,1.759,4.724,4.724,0,0,0-1.037,3.021A4.861,4.861,0,0,0,7.982-9.822a4.861,4.861,0,0,0,3.563,1.488,4.861,4.861,0,0,0,3.563-1.488A4.861,4.861,0,0,0,16.6-13.384a4.862,4.862,0,0,0-.992-3.021,4.8,4.8,0,0,0-2.616-1.759v-7.4a21.009,21.009,0,0,1,2.074.451,15.181,15.181,0,0,0,5.141.9,15.959,15.959,0,0,0,5.231-.9,1.233,1.233,0,0,0,.271-.045.572.572,0,0,0,.271-.135v4.149a6.727,6.727,0,0,0-4.149,2.435,7.051,7.051,0,0,0-1.623,4.6v3.968a1.313,1.313,0,0,0,1.263,1.443l2.8.361q.722.09.812-.541l.361-1.443a.743.743,0,0,0-.631-.9l-1.714-.271v-2.435a4.127,4.127,0,0,1,2.165-4.013,4.438,4.438,0,0,1,4.329,0,3.97,3.97,0,0,1,2.165,3.833v2.525l-1.714.361a.743.743,0,0,0-.631.9l.361,1.443q.09.631.812.541l2.886-.631a1.235,1.235,0,0,0,1.172-1.353v-3.788a7.051,7.051,0,0,0-1.623-4.6,6.727,6.727,0,0,0-4.149-2.435Z" transform="translate(0 51.625)" fill="#fff"/>
</svg>
