<svg xmlns="http://www.w3.org/2000/svg" width="46.667" height="36.296" viewBox="0 0 46.667 36.296">
  <path id="Path_6085" data-name="Path 6085" d="M42.778-43.062a3.75,3.75,0,0,1,2.755,1.134,3.75,3.75,0,0,1,1.134,2.755v28.518A3.75,3.75,0,0,1,45.532-7.9a3.75,3.75,0,0,1-2.755,1.134H3.889A3.75,3.75,0,0,1,1.134-7.9,3.75,3.75,0,0,1,0-10.655V-39.174a3.75,3.75,0,0,1,1.134-2.755,3.75,3.75,0,0,1,2.755-1.134Zm0,32.407V-39.174H3.889v28.518ZM20.5-26.454a4.983,4.983,0,0,1-3.646,1.539,4.983,4.983,0,0,1-3.646-1.539A4.983,4.983,0,0,1,11.667-30.1a4.983,4.983,0,0,1,1.539-3.646,4.983,4.983,0,0,1,3.646-1.539A4.983,4.983,0,0,1,20.5-33.745,4.983,4.983,0,0,1,22.037-30.1,4.983,4.983,0,0,1,20.5-26.454ZM9.56-14.544A1.881,1.881,0,0,1,8.3-14.99a1.38,1.38,0,0,1-.527-1.094v-1.539a4.257,4.257,0,0,1,1.58-3.322,5.653,5.653,0,0,1,3.848-1.377A6.247,6.247,0,0,1,14.583-22a7.677,7.677,0,0,0,2.269.324A7.677,7.677,0,0,0,19.12-22a6.247,6.247,0,0,1,1.377-.324,5.653,5.653,0,0,1,3.848,1.377,4.257,4.257,0,0,1,1.58,3.322v1.539A1.38,1.38,0,0,1,25.4-14.99a1.881,1.881,0,0,1-1.256.446Zm19.606-5.185a.573.573,0,0,1-.648-.648v-1.3a.573.573,0,0,1,.648-.648h9.074a.573.573,0,0,1,.648.648v1.3a.573.573,0,0,1-.648.648Zm0-5.185a.573.573,0,0,1-.648-.648v-1.3a.573.573,0,0,1,.648-.648h9.074a.573.573,0,0,1,.648.648v1.3a.573.573,0,0,1-.648.648Zm0-5.185a.573.573,0,0,1-.648-.648v-1.3a.573.573,0,0,1,.648-.648h9.074a.573.573,0,0,1,.648.648v1.3a.573.573,0,0,1-.648.648Z" transform="translate(0 43.063)" fill="#fff"/>
</svg>
