<svg xmlns="http://www.w3.org/2000/svg" width="49.308" height="43.829" viewBox="0 0 49.308 43.829">
  <path id="Path_6092" data-name="Path 6092" d="M24.763-39.156,43.511-22.634a1.4,1.4,0,0,0,.214.171.416.416,0,0,0,.214.086V-6.54a1.333,1.333,0,0,1-.385.984,1.333,1.333,0,0,1-.984.385H6.958a1.333,1.333,0,0,1-.984-.385,1.333,1.333,0,0,1-.385-.984V-22.377a.657.657,0,0,0,.257-.086q.171-.086.171-.171Zm8.218,22.343v-4.109a.605.605,0,0,0-.685-.685H27.5V-26.4a.605.605,0,0,0-.685-.685H22.709a.605.605,0,0,0-.685.685v4.794H17.23a.605.605,0,0,0-.685.685v4.109a.605.605,0,0,0,.685.685h4.794v4.794a.605.605,0,0,0,.685.685h4.109a.605.605,0,0,0,.685-.685v-4.794H32.3A.605.605,0,0,0,32.981-16.813ZM48.989-28.8a1.4,1.4,0,0,1,.428,1.027,1.473,1.473,0,0,1-.342.942l-1.8,2.055a1.4,1.4,0,0,1-1.027.428,1.272,1.272,0,0,1-.942-.342L25.705-41.98a1.473,1.473,0,0,0-.942-.342,1.473,1.473,0,0,0-.942.342L4.218-24.688a1.272,1.272,0,0,1-.942.342,1.14,1.14,0,0,1-.942-.428L.452-26.828a1.473,1.473,0,0,1-.342-.942A1.4,1.4,0,0,1,.537-28.8L22.452-48.144A3.517,3.517,0,0,1,24.763-49a3.517,3.517,0,0,1,2.311.856Z" transform="translate(-0.109 49)" fill="#fff"/>
</svg>
