<svg xmlns="http://www.w3.org/2000/svg" width="45.395" height="34.046" viewBox="0 0 45.395 34.046">
  <path id="Path_6087" data-name="Path 6087" d="M44.508-32.24a.438.438,0,0,1,.576-.089.575.575,0,0,1,.31.532V-13.71A4.1,4.1,0,0,1,44.153-10.7a4.1,4.1,0,0,1-3.014,1.241H4.256A4.1,4.1,0,0,1,1.241-10.7,4.1,4.1,0,0,1,0-13.71V-31.8a.486.486,0,0,1,.31-.488.573.573,0,0,1,.576.044q2.926,2.217,13.654,10.019.177.177,1.2.975t1.64,1.2q.621.4,1.6.975a8.186,8.186,0,0,0,1.906.842,6.6,6.6,0,0,0,1.818.266,6.6,6.6,0,0,0,1.818-.266,9.048,9.048,0,0,0,1.951-.842,18.89,18.89,0,0,0,1.64-1.02q.621-.443,1.6-1.2t1.153-.931Q41.316-29.757,44.508-32.24ZM22.7-20.8a4.179,4.179,0,0,1-1.729-.488,15.4,15.4,0,0,1-1.64-.887q-.621-.4-1.818-1.33a9.627,9.627,0,0,0-1.286-.931Q5.408-32.329.8-35.875A2.021,2.021,0,0,1,0-37.56v-1.685a4.1,4.1,0,0,1,1.241-3.014A4.1,4.1,0,0,1,4.256-43.5H41.139a4.1,4.1,0,0,1,3.014,1.241,4.1,4.1,0,0,1,1.241,3.014v1.685a2.021,2.021,0,0,1-.8,1.685Q40.252-32.506,29.17-24.438a9.627,9.627,0,0,0-1.286.931q-1.2.931-1.818,1.33a15.4,15.4,0,0,1-1.64.887A4.179,4.179,0,0,1,22.7-20.8Z" transform="translate(0 43.5)" fill="#fff"/>
</svg>
